<svg width="24" height="24" viewBox="0 0 24 24" fill="none" xmlns="http://www.w3.org/2000/svg">
<path d="M12 2C6.47581 2 2 6.47581 2 12C2 17.5242 6.47581 22 12 22C17.5242 22 22 17.5242 22 12C22 6.47581 17.5242 2 12 2ZM15.7294 14.621L14.923 15.629C14.8701 15.6952 14.8046 15.7503 14.7304 15.7912C14.6562 15.832 14.5746 15.8579 14.4904 15.8673C14.4062 15.8766 14.321 15.8693 14.2396 15.8457C14.1582 15.8221 14.0823 15.7828 14.0161 15.7298L11.3145 13.725C11.1257 13.5739 10.9734 13.3822 10.8687 13.1642C10.764 12.9463 10.7096 12.7075 10.7097 12.4657V6.19355C10.7097 6.02244 10.7776 5.85834 10.8986 5.73735C11.0196 5.61636 11.1837 5.54839 11.3548 5.54839H12.6452C12.8163 5.54839 12.9804 5.61636 13.1014 5.73735C13.2224 5.85834 13.2903 6.02244 13.2903 6.19355V12L15.629 13.7137C15.6952 13.7667 15.7503 13.8321 15.7912 13.9064C15.8321 13.9807 15.8579 14.0623 15.8672 14.1465C15.8766 14.2308 15.8692 14.3161 15.8456 14.3975C15.8219 14.4789 15.7824 14.5548 15.7294 14.621Z" fill="#ACAEB6"/>
</svg>
