<svg width="24" height="24" viewBox="0 0 24 24" fill="none" xmlns="http://www.w3.org/2000/svg">
<path fill-rule="evenodd" clip-rule="evenodd" d="M12 2.00001L11.8526 2.00001C9.84678 1.99986 8.68052 1.99977 7.7014 2.26212C5.04685 2.97341 2.97341 5.04685 2.26212 7.7014C1.99977 8.68052 1.99986 9.84678 2.00001 11.8526L2.00001 12L2.00001 12.1474C1.99986 14.1532 1.99977 15.3195 2.26212 16.2986C2.97341 18.9532 5.04685 21.0266 7.7014 21.7379C8.68052 22.0002 9.84678 22.0001 11.8526 22L12 22L12.1474 22C14.1532 22.0001 15.3195 22.0002 16.2986 21.7379C18.9532 21.0266 21.0266 18.9532 21.7379 16.2986C22.0002 15.3195 22.0001 14.1532 22 12.1474L22 12L22 11.8526C22.0001 9.84678 22.0002 8.68052 21.7379 7.7014C21.0266 5.04685 18.9532 2.97341 16.2986 2.26212C15.3195 1.99977 14.1532 1.99986 12.1474 2.00001L12 2.00001ZM12 6.61539C12.4248 6.61539 12.7692 6.95979 12.7692 7.38462V17.3846C12.7692 17.8094 12.4248 18.1538 12 18.1538C11.5752 18.1538 11.2308 17.8094 11.2308 17.3846V7.38462C11.2308 6.95979 11.5752 6.61539 12 6.61539ZM15.8461 9.69231C16.271 9.69231 16.6154 10.0367 16.6154 10.4615V17.3846C16.6154 17.8094 16.271 18.1538 15.8461 18.1538C15.4213 18.1538 15.0769 17.8094 15.0769 17.3846V10.4615C15.0769 10.0367 15.4213 9.69231 15.8461 9.69231ZM8.15385 12C8.57869 12 8.92308 12.3444 8.92308 12.7692V17.3846C8.92308 17.8094 8.57869 18.1538 8.15385 18.1538C7.72902 18.1538 7.38462 17.8094 7.38462 17.3846V12.7692C7.38462 12.3444 7.72902 12 8.15385 12Z" fill="#FF9933"/>
</svg>
