<svg width="24" height="24" viewBox="0 0 24 24" fill="none" xmlns="http://www.w3.org/2000/svg">
<path d="M12.7397 2.00996C12.5802 1.99668 12.4198 1.99668 12.2603 2.00996C11.4691 2.07581 10.8717 2.53171 10.3402 3.12153C9.82445 3.69393 9.26592 4.51397 8.58156 5.51874L8.54864 5.56708C8.13712 6.17124 8.02048 6.3264 7.87709 6.43618C7.85646 6.45198 7.83536 6.46715 7.81381 6.4817C7.66412 6.58273 7.47918 6.64456 6.77161 6.84534L6.71494 6.86142C5.53828 7.19527 4.57783 7.46777 3.8685 7.77655C3.13738 8.09481 2.51509 8.5164 2.20758 9.24044C2.14557 9.38646 2.09604 9.53736 2.05952 9.69157C1.87848 10.4561 2.13151 11.1589 2.53394 11.8417C2.92442 12.5042 3.53961 13.2835 4.29338 14.2384L4.32962 14.2843C4.7828 14.8584 4.89588 15.0162 4.95708 15.1853C4.96589 15.2096 4.97396 15.2342 4.98128 15.259C5.03217 15.4315 5.03439 15.6251 5.00862 16.3532L5.00656 16.4114C4.96366 17.6226 4.92865 18.611 5.00607 19.3742C5.08584 20.1605 5.2984 20.8766 5.89904 21.3899C6.02019 21.4935 6.14991 21.5868 6.28684 21.6689C6.96594 22.076 7.72002 22.0548 8.50041 21.8868C9.25761 21.7239 10.1964 21.3854 11.3466 20.9708L11.402 20.9509C12.0936 20.7015 12.2799 20.644 12.4609 20.6386C12.487 20.6378 12.513 20.6378 12.5391 20.6386C12.7201 20.644 12.9064 20.7015 13.598 20.9509L13.6534 20.9708C14.8036 21.3854 15.7424 21.7239 16.4996 21.8868C17.28 22.0548 18.0341 22.076 18.7132 21.6689C18.8501 21.5868 18.9798 21.4935 19.101 21.3899C19.7016 20.8766 19.9142 20.1605 19.9939 19.3742C20.0713 18.611 20.0363 17.6226 19.9934 16.4115L19.9914 16.3532C19.9656 15.6251 19.9678 15.4315 20.0187 15.259C20.026 15.2342 20.0341 15.2096 20.0429 15.1853C20.1041 15.0162 20.2172 14.8584 20.6704 14.2843L20.7066 14.2384C21.4604 13.2835 22.0756 12.5042 22.4661 11.8417C22.8685 11.1589 23.1215 10.4561 22.9405 9.69157C22.904 9.53736 22.8544 9.38646 22.7924 9.24044C22.4849 8.5164 21.8626 8.09481 21.1315 7.77655C20.4222 7.46777 19.4617 7.19527 18.2851 6.86142L18.2284 6.84534C17.5208 6.64456 17.3359 6.58273 17.1862 6.4817C17.1646 6.46716 17.1435 6.45198 17.1229 6.43618C16.9795 6.3264 16.8629 6.17124 16.4514 5.56708L16.4184 5.51875C15.7341 4.51397 15.1755 3.69393 14.6598 3.12153C14.1283 2.53171 13.5309 2.07581 12.7397 2.00996Z" fill="#F1CB2F"/>
</svg>
