<svg width="55" height="84" viewBox="0 0 55 84" fill="none" xmlns="http://www.w3.org/2000/svg">
<path d="M0 41.1721C0 39.6267 0 38.8539 0.298538 38.2636C0.561139 37.7444 0.98016 37.3222 1.49554 37.0577C2.08146 36.7569 2.84846 36.7569 4.38247 36.7569H9.64143C11.1754 36.7569 11.9424 36.7569 12.5284 37.0577C13.0437 37.3222 13.4628 37.7444 13.7254 38.2636C14.0239 38.8539 14.0239 39.6267 14.0239 41.1721V68.5466C14.0239 70.0921 14.0239 70.8649 13.7254 71.4552C13.4628 71.9744 13.0437 72.3966 12.5284 72.6611C11.9424 72.9619 11.1754 72.9619 9.64143 72.9619H4.38247C2.84846 72.9619 2.08146 72.9619 1.49554 72.6611C0.98016 72.3966 0.561139 71.9744 0.298538 71.4552C0 70.8649 0 70.0921 0 68.5466V41.1721Z" fill="url(#paint0_linear_405_15644)"/>
<path d="M20.488 30.0237C20.488 28.4782 20.488 27.7054 20.7866 27.1151C21.0492 26.5959 21.4682 26.1737 21.9836 25.9092C22.5695 25.6084 23.3365 25.6084 24.8705 25.6084H30.1295C31.6635 25.6084 32.4305 25.6084 33.0164 25.9092C33.5318 26.1737 33.9508 26.5959 34.2134 27.1151C34.512 27.7054 34.512 28.4782 34.512 30.0237V57.5085C34.512 59.054 34.512 59.8268 34.2134 60.4171C33.9508 60.9363 33.5318 61.3584 33.0164 61.623C32.4305 61.9238 31.6635 61.9238 30.1295 61.9238H24.8705C23.3365 61.9238 22.5695 61.9238 21.9836 61.623C21.4682 61.3584 21.0492 60.9363 20.7866 60.4171C20.488 59.8268 20.488 59.054 20.488 57.5085V30.0237Z" fill="url(#paint1_linear_405_15644)"/>
<path d="M40.9761 15.4534C40.9761 13.9079 40.9761 13.1351 41.2746 12.5448C41.5372 12.0256 41.9563 11.6034 42.4716 11.3389C43.0576 11.0381 43.8246 11.0381 45.3586 11.0381H50.6175C52.1515 11.0381 52.9185 11.0381 53.5045 11.3389C54.0198 11.6034 54.4389 12.0256 54.7015 12.5448C55 13.1351 55 13.9079 55 15.4534V42.8279C55 44.3733 55 45.1461 54.7015 45.7364C54.4389 46.2556 54.0198 46.6778 53.5045 46.9423C52.9185 47.2431 52.1515 47.2431 50.6175 47.2431H45.3586C43.8246 47.2431 43.0576 47.2431 42.4716 46.9423C41.9563 46.6778 41.5372 46.2556 41.2746 45.7364C40.9761 45.1461 40.9761 44.3733 40.9761 42.8279V15.4534Z" fill="url(#paint2_linear_405_15644)"/>
<path d="M5.47809 25.6084H8.54582V84H5.47809V25.6084Z" fill="url(#paint3_linear_405_15644)"/>
<path d="M25.9661 14.5703H29.0339V72.9619H25.9661V14.5703Z" fill="url(#paint4_linear_405_15644)"/>
<path d="M46.4542 0H49.5219V58.3916H46.4542V0Z" fill="url(#paint5_linear_405_15644)"/>
<defs>
<linearGradient id="paint0_linear_405_15644" x1="68.8048" y1="-6.23653" x2="-6.64583" y2="86.3754" gradientUnits="userSpaceOnUse">
<stop stop-color="#FF6600"/>
<stop offset="0.5" stop-color="#FF9933"/>
<stop offset="1" stop-color="#F1CB2F"/>
</linearGradient>
<linearGradient id="paint1_linear_405_15644" x1="68.8048" y1="-6.23653" x2="-6.64583" y2="86.3754" gradientUnits="userSpaceOnUse">
<stop stop-color="#FF6600"/>
<stop offset="0.5" stop-color="#FF9933"/>
<stop offset="1" stop-color="#F1CB2F"/>
</linearGradient>
<linearGradient id="paint2_linear_405_15644" x1="68.8048" y1="-6.23653" x2="-6.64583" y2="86.3754" gradientUnits="userSpaceOnUse">
<stop stop-color="#FF6600"/>
<stop offset="0.5" stop-color="#FF9933"/>
<stop offset="1" stop-color="#F1CB2F"/>
</linearGradient>
<linearGradient id="paint3_linear_405_15644" x1="68.8048" y1="-6.23653" x2="-6.64583" y2="86.3754" gradientUnits="userSpaceOnUse">
<stop stop-color="#FF6600"/>
<stop offset="0.5" stop-color="#FF9933"/>
<stop offset="1" stop-color="#F1CB2F"/>
</linearGradient>
<linearGradient id="paint4_linear_405_15644" x1="68.8048" y1="-6.23653" x2="-6.64583" y2="86.3754" gradientUnits="userSpaceOnUse">
<stop stop-color="#FF6600"/>
<stop offset="0.5" stop-color="#FF9933"/>
<stop offset="1" stop-color="#F1CB2F"/>
</linearGradient>
<linearGradient id="paint5_linear_405_15644" x1="68.8048" y1="-6.23653" x2="-6.64583" y2="86.3754" gradientUnits="userSpaceOnUse">
<stop stop-color="#FF6600"/>
<stop offset="0.5" stop-color="#FF9933"/>
<stop offset="1" stop-color="#F1CB2F"/>
</linearGradient>
</defs>
</svg>
