<svg width="120" height="120" viewBox="0 0 120 120" fill="none" xmlns="http://www.w3.org/2000/svg">
<circle cx="60" cy="60" r="60" fill="white" fill-opacity="0.08"/>
<path fill-rule="evenodd" clip-rule="evenodd" d="M60 40C48.9543 40 40 48.9543 40 60C40 66.7308 43.3264 72.6846 48.418 76.3069C51.6865 78.6323 55.6858 80 60 80C64.3134 80 68.3121 78.6327 71.5803 76.3082C76.6729 72.6859 80 66.7315 80 60C80 48.9543 71.0457 40 60 40ZM68.2168 74.7983C68.7418 74.5061 69.0263 73.909 68.8848 73.3251C68.6236 72.2481 68.1813 71.4364 67.4592 70.8089C66.3216 69.8204 64.1828 69.019 59.9828 68.9231C55.7865 68.9252 53.6645 69.7166 52.5405 70.7054C51.8084 71.3494 51.3628 72.1982 51.1027 73.3261C50.9683 73.9088 51.2517 74.502 51.7741 74.7932C54.2086 76.1501 57.0125 76.9231 60 76.9231C62.9838 76.9231 65.7844 76.1521 68.2168 74.7983ZM60 65.8462C63.5705 65.8462 66.5385 62.8566 66.5385 59.0769C66.5385 55.2972 63.5705 52.3077 60 52.3077C56.4295 52.3077 53.4615 55.2972 53.4615 59.0769C53.4615 62.8566 56.4295 65.8462 60 65.8462Z" fill="white" fill-opacity="0.5"/>
</svg>
