<svg width="24" height="24" viewBox="0 0 24 24" fill="none" xmlns="http://www.w3.org/2000/svg">
<path fill-rule="evenodd" clip-rule="evenodd" d="M17.5132 2.64747C14.2219 1.78418 10.7781 1.78418 7.48677 2.64747C6.54537 2.89439 5.91333 3.76973 5.91333 4.74136V5.20077C5.8045 5.1862 5.69352 5.17867 5.58083 5.17867C4.12998 5.17867 3 6.40464 3 7.85826V10.1507C3 11.6043 4.12998 12.8303 5.58083 12.8303C5.74727 12.8303 5.90999 12.8139 6.06754 12.7826C6.66286 15.6039 8.91965 17.7967 11.74 18.1341V20.4615H10.315C9.89526 20.4615 9.555 20.8059 9.555 21.2308C9.555 21.6556 9.89526 22 10.315 22H14.685C15.1047 22 15.445 21.6556 15.445 21.2308C15.445 20.8059 15.1047 20.4615 14.685 20.4615H13.26V18.1341C16.0803 17.7967 18.3371 15.6039 18.9325 12.7826C19.09 12.8139 19.2527 12.8303 19.4192 12.8303C20.87 12.8303 22 11.6043 22 10.1507V7.85826C22 6.40464 20.87 5.17867 19.4192 5.17867C19.3065 5.17867 19.1955 5.1862 19.0867 5.20077V4.74136C19.0867 3.76973 18.4546 2.89439 17.5132 2.64747ZM5.91333 6.77417C5.80848 6.73696 5.69677 6.71713 5.58083 6.71713C5.02045 6.71713 4.52 7.20175 4.52 7.85826V10.1507C4.52 10.8072 5.02045 11.2918 5.58083 11.2918C5.69675 11.2918 5.80846 11.272 5.91333 11.2348V6.77417ZM19.0867 11.2348C19.1915 11.272 19.3032 11.2918 19.4192 11.2918C19.9795 11.2918 20.48 10.8072 20.48 10.1507V7.85826C20.48 7.20175 19.9795 6.71713 19.4192 6.71713C19.3032 6.71713 19.1915 6.73696 19.0867 6.77417V11.2348Z" fill="white" fill-opacity="0.5"/>
</svg>
