<svg width="24" height="24" viewBox="0 0 24 24" fill="none" xmlns="http://www.w3.org/2000/svg">
<path fill-rule="evenodd" clip-rule="evenodd" d="M12 2C6.47715 2 2 6.47715 2 12C2 17.5228 6.47715 22 12 22H18.6289C19.1126 22 19.5298 22 19.8712 21.9669C20.2327 21.9319 20.5894 21.8541 20.9201 21.6463C21.2136 21.4618 21.4618 21.2136 21.6463 20.9201C21.8541 20.5894 21.9319 20.2327 21.9669 19.8712C22 19.5298 22 19.1126 22 18.6289V12C22 6.47715 17.5228 2 12 2ZM6.61538 10.4615C6.61538 10.0367 6.95978 9.69231 7.38461 9.69231H12.7692C13.1941 9.69231 13.5385 10.0367 13.5385 10.4615C13.5385 10.8864 13.1941 11.2308 12.7692 11.2308H7.38461C6.95978 11.2308 6.61538 10.8864 6.61538 10.4615ZM6.61538 13.5385C6.61538 13.1136 6.95978 12.7692 7.38461 12.7692H16.6154C17.0402 12.7692 17.3846 13.1136 17.3846 13.5385C17.3846 13.9633 17.0402 14.3077 16.6154 14.3077H7.38461C6.95978 14.3077 6.61538 13.9633 6.61538 13.5385Z" fill="#F1CB2F"/>
</svg>
