<svg width="24" height="24" viewBox="0 0 24 24" fill="none" xmlns="http://www.w3.org/2000/svg">
<path fill-rule="evenodd" clip-rule="evenodd" d="M12 2C11.4272 2 10.9065 2.14155 10.3498 2.37176C9.81639 2.59233 9.20074 2.91621 8.44543 3.31355L5.86724 4.66984C5.04773 5.10094 4.3807 5.45183 3.86386 5.79252C3.32461 6.14798 2.89469 6.52592 2.58024 7.03679C2.26588 7.54752 2.12786 8.09212 2.06258 8.71837C1.99998 9.31887 1.99999 10.0514 2 10.9519V13.0481C1.99999 13.9486 1.99998 14.6811 2.06258 15.2816C2.12786 15.9079 2.26588 16.4525 2.58024 16.9632C2.89469 17.4741 3.32461 17.852 3.86386 18.2075C4.38069 18.5482 5.0477 18.899 5.8672 19.3301L8.4454 20.6864C9.20072 21.0838 9.81638 21.4077 10.3498 21.6282C10.9065 21.8584 11.4272 22 12 22C12.5728 22 13.0935 21.8584 13.6502 21.6282C14.1836 21.4077 14.7993 21.0838 15.5546 20.6864L18.1328 19.3301C18.9523 18.899 19.6193 18.5482 20.1361 18.2075C20.6754 17.852 21.1053 17.4741 21.4198 16.9632C21.7341 16.4525 21.8721 15.9079 21.9374 15.2816C22 14.6811 22 13.9486 22 13.0481V10.9519C22 10.0514 22 9.31887 21.9374 8.71837C21.8721 8.09212 21.7341 7.54752 21.4198 7.03679C21.1053 6.52592 20.6754 6.14798 20.1361 5.79252C19.6516 5.47313 19.0351 5.14478 18.2847 4.74978L18.1328 4.66986L15.5546 3.31355C14.7993 2.9162 14.1836 2.59233 13.6502 2.37176C13.0935 2.14155 12.5728 2 12 2ZM7.85455 12C7.85455 9.7954 9.70825 8.00426 12 8.00426C14.2917 8.00426 16.1455 9.7954 16.1455 12C16.1455 14.2046 14.2917 15.9957 12 15.9957C9.70825 15.9957 7.85455 14.2046 7.85455 12Z" fill="white" fill-opacity="0.5"/>
<path fill-rule="evenodd" clip-rule="evenodd" d="M9.45455 12C9.45455 10.6407 10.5965 9.54272 12 9.54272C13.4035 9.54272 14.5455 10.6407 14.5455 12C14.5455 13.3593 13.4035 14.4573 12 14.4573C10.5965 14.4573 9.45455 13.3593 9.45455 12Z" fill="white" fill-opacity="0.5"/>
</svg>
